#!OML:ASF G:\JayActor3\Patient Classification 1\Patient 1\Session 6\male.ASF
:FULLY-SPECIFIED
:DEGREES
2025
root 2.46171 16.0819 -25.7312 520.185 -44.9378 -524.283
lowerback -7.79672 -1.56597 9.29631
upperback -0.314435 -3.22158 3.10713
thorax 3.7388 -1.53739 -2.31034
lowerneck 7.89339 3.27666 -2.95064
upperneck 2.87085 3.24497 20.7188
head -0.964485 0.932032 6.70668
rclavicle -3.29486e-014 -3.86636e-014
rhumerus -35.7891 -6.76571 -87.9805
rradius 116.437
rwrist 18.5407
rhand -2.47934 -28.5783
rfingers 7.12502
rthumb 23.2136 -57.1993
lclavicle -3.29486e-014 -3.86636e-014
lhumerus -12.7676 -42.2021 86.6268
lradius 116.667
lwrist -19.6838
lhand -50.6522 -28.0764
lfingers 7.12502
lthumb -23.215 0.54441
rfemur 7.12508 2.64749 36.7541
rtibia 25.2011
rfoot -18.8985 3.59074
rtoes 14.8189
lfemur -2.84574 -6.07395 2.65319
ltibia 41.9271
lfoot -9.73237 -22.175
ltoes -4.2529
2026
root 2.44498 16.0859 -25.7178 520.445 -44.6999 -524.498
lowerback -7.85114 -1.57249 9.28179
upperback -0.291759 -3.23837 3.11309
thorax 3.7927 -1.54326 -2.30063
lowerneck 7.68155 3.28125 -2.77872
upperneck 3.08136 3.22293 20.538
head -0.855513 0.950327 6.62104
rclavicle 6.65929e-015 1.22253e-014
rhumerus -35.6553 -6.61082 -88.1413
rradius 116.403
rwrist 18.6006
rhand -2.49383 -28.5675
rfingers 7.12502
rthumb 23.1997 -57.1903
lclavicle 6.65929e-015 1.22253e-014
lhumerus -13.0801 -41.8713 86.5665
lradius 116.254
lwrist -19.8255
lhand -51.0474 -28.2762
lfingers 7.12502
lthumb -23.594 0.296293
rfemur 7.01528 2.93905 36.6224
rtibia 25.3149
rfoot -18.9341 3.57788
rtoes 14.771
lfemur -2.67654 -5.95914 2.49566
ltibia 41.6855
lfoot -9.76212 -22.2321
ltoes -4.4244
2027
root 2.42769 16.0898 -25.7041 520.704 -44.4631 -524.711
lowerback -7.90269 -1.58628 9.26573
upperback -0.277965 -3.26513 3.13228
thorax 3.83554 -1.55533 -2.27699
lowerneck 7.49879 3.29609 -2.64216
upperneck 3.29202 3.21495 20.3523
head -0.753882 0.974263 6.53967
rclavicle 9.19379e-015 9.85972e-014
rhumerus -35.5346 -6.43138 -88.2862
rradius 116.365
rwrist 18.6578
rhand -2.51209 -28.5568
rfingers 7.12502
rthumb 23.1822 -57.1818
lclavicle 9.19379e-015 9.85972e-014
lhumerus -13.424 -41.5077 86.5489
lradius 115.856
lwrist -19.9523
lhand -51.4046 -28.4716
lfingers 7.12502
lthumb -23.9366 0.0563718
rfemur 6.90617 3.21713 36.4812
rtibia 25.4266
rfoot -18.9693 3.5768
rtoes 14.7054
lfemur -2.50419 -5.84265 2.33035
ltibia 41.4412
lfoot -9.83079 -22.2609
ltoes -4.69622
2028
root 2.40966 16.0937 -25.6899 520.962 -44.2226 -524.922
lowerback -7.92933 -1.60347 9.24856
upperback -0.28741 -3.29324 3.1664
thorax 3.8408 -1.57098 -2.23578
lowerneck 7.35182 3.3183 -2.53839
upperneck 3.5063 3.21653 20.1647
head -0.65917 1.00113 6.46326
rclavicle -1.34677e-014 -5.40694e-014
rhumerus -35.4533 -6.23203 -88.4034
rradius 116.331
rwrist 18.7034
rhand -2.5321 -28.5432
rfingers 7.12502
rthumb 23.163 -57.1705
lclavicle -1.34677e-014 -5.40694e-014
lhumerus -13.8238 -41.1099 86.5943
lradius 115.47
lwrist -20.0637
lhand -51.7121 -28.6301
lfingers 7.12502
lthumb -24.2315 -0.141192
rfemur 6.79871 3.47535 36.3262
rtibia 25.537
rfoot -18.9986 3.60585
rtoes 14.6475
lfemur -2.32331 -5.7235 2.15582
ltibia 41.1927
lfoot -9.93548 -22.2548
ltoes -5.02689
2029
root 2.39119 16.0976 -25.6752 521.214 -43.9745 -525.123
lowerback -7.96612 -1.6173 9.24922
upperback -0.293858 -3.32064 3.2039
thorax 3.85438 -1.58574 -2.20132
lowerneck 7.2299 3.34737 -2.449
upperneck 3.7028 3.23144 19.9796
head -0.575824 1.03198 6.38976
rclavicle -4.20927e-014 -3.51849e-014
rhumerus -35.3696 -6.02871 -88.5167
rradius 116.295
rwrist 18.744
rhand -2.54681 -28.531
rfingers 7.12502
rthumb 23.1488 -57.1602
lclavicle -4.20927e-014 -3.51849e-014
lhumerus -14.2184 -40.6914 86.6456
lradius 115.094
lwrist -20.1525
lhand -51.9514 -28.7988
lfingers 7.12502
lthumb -24.4609 -0.340642
rfemur 6.68976 3.71402 36.1656
rtibia 25.6462
rfoot -19.0192 3.6621
rtoes 14.5865
lfemur -2.1358 -5.59677 1.98265
ltibia 40.9399
lfoot -10.0707 -22.2182
ltoes -5.39704
2030
root 2.3726 16.1016 -25.66 521.47 -43.717 -525.321
lowerback -8.00558 -1.63038 9.25878
upperback -0.303631 -3.34862 3.24567
thorax 3.86575 -1.60106 -2.16743
lowerneck 7.12544 3.38674 -2.36551
upperneck 3.88869 3.26354 19.7921
head -0.500522 1.06972 6.31606
rclavicle -6.10766e-014 -1.80894e-014
rhumerus -35.2899 -5.80689 -88.6264
rradius 116.256
rwrist 18.7686
rhand -2.56071 -28.5221
rfingers 7.12502
rthumb 23.1355 -57.1529
lclavicle -6.10766e-014 -1.80894e-014
lhumerus -14.6215 -40.2449 86.7074
lradius 114.725
lwrist -20.2267
lhand -52.1371 -28.9821
lfingers 7.12502
lthumb -24.6389 -0.548078
rfemur 6.57283 3.94302 35.9971
rtibia 25.7568
rfoot -19.0306 3.74924
rtoes 14.5493
lfemur -1.94515 -5.45598 1.80754
ltibia 40.6812
lfoot -10.2436 -22.1467
ltoes -5.81724
2031
root 2.35387 16.1057 -25.6443 521.718 -43.4526 -525.509
lowerback -8.04189 -1.64052 9.28141
upperback -0.31352 -3.37392 3.28924
thorax 3.87498 -1.61506 -2.13846
lowerneck 7.02138 3.43112 -2.27483
upperneck 4.07732 3.30326 19.5973
head -0.424892 1.11136 6.23894
rclavicle -3.62782e-015 -2.70347e-014
rhumerus -35.209 -5.57871 -88.7328
rradius 116.215
rwrist 18.7824
rhand -2.58393 -28.5131
rfingers 7.12502
rthumb 23.1132 -57.1467
lclavicle -3.62782e-015 -2.70347e-014
lhumerus -15.0249 -39.7892 86.7713
lradius 114.366
lwrist -20.2902
lhand -52.2792 -29.1478
lfingers 7.12502
lthumb -24.7752 -0.73251
rfemur 6.45187 4.15309 35.8243
rtibia 25.8679
rfoot -19.0314 3.86835
rtoes 14.5421
lfemur -1.7495 -5.307 1.6357
ltibia 40.4189
lfoot -10.4343 -22.0476
ltoes -6.21651
2032
root 2.33507 16.1096 -25.6283 521.966 -43.1834 -525.694
lowerback -8.07386 -1.64953 9.3094
upperback -0.323478 -3.39782 3.33295
thorax 3.88159 -1.62844 -2.11196
lowerneck 6.90686 3.48071 -2.16664
upperneck 4.27629 3.3501 19.3875
head -0.344301 1.15792 6.15433
rclavicle 1.54754e-013 -5.78463e-014
rhumerus -35.1187 -5.34596 -88.8388
rradius 116.171
rwrist 18.7843
rhand -2.59455 -28.5097
rfingers 7.12502
rthumb 23.103 -57.1446
lclavicle 1.54754e-013 -5.78463e-014
lhumerus -15.4353 -39.3376 86.8396
lradius 114.023
lwrist -20.3372
lhand -52.4361 -29.1589
lfingers 7.12502
lthumb -24.9255 -0.764323
rfemur 6.32817 4.35153 35.6443
rtibia 25.9798
rfoot -19.0251 4.01616
rtoes 14.5727
lfemur -1.54951 -5.14628 1.46102
ltibia 40.1545
lfoot -10.6521 -21.9202
ltoes -6.61038
2033
root 2.31643 16.1133 -25.6117 522.202 -42.9083 -525.859
lowerback -8.08409 -1.65895 9.34821
upperback -0.34485 -3.42079 3.38471
thorax 3.86403 -1.64294 -2.08171
lowerneck 6.78711 3.5335 -2.05268
upperneck 4.50131 3.3977 19.1658
head -0.254718 1.20651 6.06564
rclavicle 2.98177e-016 -6.95746e-015
rhumerus -35.0396 -5.10147 -88.9362
rradius 116.127
rwrist 18.7852
rhand -2.62133 -28.5108
rfingers 7.12502
rthumb 23.0773 -57.1489
lclavicle 2.98177e-016 -6.95746e-015
lhumerus -15.8698 -38.887 86.9254
lradius 113.693
lwrist -20.3714
lhand -52.5983 -29.0709
lfingers 7.12502
lthumb -25.0809 -0.697948
rfemur 6.19748 4.54644 35.4756
rtibia 26.0899
rfoot -19.0108 4.17184
rtoes 14.6253
lfemur -1.35307 -4.97436 1.2999
ltibia 39.8912
lfoot -10.8852 -21.7707
ltoes -6.98307
2034
root 2.29793 16.1168 -25.5947 522.428 -42.6303 -526.01
lowerback -8.07012 -1.67029 9.39162
upperback -0.37889 -3.44382 3.44534
thorax 3.81986 -1.65933 -2.04337
lowerneck 6.66282 3.58823 -1.93339
upperneck 4.75049 3.44493 18.9303
head -0.156611 1.25642 5.97246
rclavicle -4.02539e-015 -1.78906e-014
rhumerus -34.9692 -4.84856 -89.0227
rradius 116.085
rwrist 18.7997
rhand -2.64027 -28.5092
rfingers 7.12502
rthumb 23.0592 -57.1496
lclavicle -4.02539e-015 -1.78906e-014
lhumerus -16.3343 -38.4332 87.0361
lradius 113.373
lwrist -20.4041
lhand -52.7782 -28.9184
lfingers 7.12502
lthumb -25.2532 -0.569682
rfemur 6.06181 4.74313 35.3167
rtibia 26.1983
rfoot -18.9979 4.32168
rtoes 14.6582
lfemur -1.16048 -4.79095 1.14638
ltibia 39.6305
lfoot -11.1488 -21.5894
ltoes -7.40132
2035
root 2.27953 16.1201 -25.5774 522.65 -42.3498 -526.155
lowerback -8.02678 -1.683 9.42996
upperback -0.428453 -3.46443 3.51632
thorax 3.74408 -1.67687 -1.98953
lowerneck 6.53349 3.64465 -1.81211
upperneck 5.02699 3.4908 18.6828
head -0.0489841 1.3072 5.87606
rclavicle -9.29318e-014 -1.98785e-014
rhumerus -34.9173 -4.58669 -89.0921
rradius 116.05
rwrist 18.7945
rhand -2.65468 -28.5021
rfingers 7.12502
rthumb 23.0453 -57.1442
lclavicle -9.29318e-014 -1.98785e-014
lhumerus -16.8288 -37.9741 87.1756
lradius 113.059
lwrist -20.4305
lhand -52.9475 -28.8092
lfingers 7.12502
lthumb -25.4155 -0.483391
rfemur 5.92613 4.95503 35.1677
rtibia 26.3034
rfoot -18.9924 4.44824
rtoes 14.655
lfemur -0.96818 -4.5917 0.994607
ltibia 39.3729
lfoot -11.4478 -21.3715
ltoes -7.90323
2036
root 2.26105 16.1231 -25.56 522.864 -42.0674 -526.293
lowerback -7.96193 -1.6992 9.46482
upperback -0.489617 -3.48675 3.59691
thorax 3.64471 -1.6971 -1.92267
lowerneck 6.40485 3.70322 -1.68848
upperneck 5.3191 3.53841 18.4229
head 0.0635091 1.35938 5.77613
rclavicle -3.80673e-014 -3.4191e-014
rhumerus -34.8818 -4.31042 -89.1488
rradius 116.022
rwrist 18.7746
rhand -2.66761 -28.4878
rfingers 7.12502
rthumb 23.0329 -57.1315
lclavicle -3.80673e-014 -3.4191e-014
lhumerus -17.3532 -37.5014 87.3393
lradius 112.75
lwrist -20.4578
lhand -53.1031 -28.7714
lfingers 7.12502
lthumb -25.5645 -0.466957
rfemur 5.79201 5.18043 35.027
rtibia 26.4075
rfoot -18.9924 4.55614
rtoes 14.6358
lfemur -0.773056 -4.37879 0.842364
ltibia 39.1167
lfoot -11.7783 -21.1086
ltoes -8.47883
